<mxfile host="app.diagrams.net" modified="2023-04-18T11:51:06.822Z" agent="Mozilla/5.0 (X11; Linux x86_64; rv:109.0) Gecko/20100101 Firefox/111.0" etag="FSgdtaqC2eSDyVhCrSXP" version="21.1.8">
  <diagram name="Page-1" id="piPk_uTAX-ESslLLZlSE">
    <mxGraphModel dx="1058" dy="625" grid="1" gridSize="10" guides="1" tooltips="1" connect="1" arrows="1" fold="1" page="1" pageScale="1" pageWidth="850" pageHeight="1100" math="0" shadow="0">
      <root>
        <mxCell id="0" />
        <mxCell id="1" parent="0" />
        <mxCell id="2lj4yMtTakOGlPAu2oi3-14" value="" style="group" vertex="1" connectable="0" parent="1">
          <mxGeometry x="40" y="320" width="230" height="200" as="geometry" />
        </mxCell>
        <mxCell id="2lj4yMtTakOGlPAu2oi3-3" value="" style="shape=folder;fontStyle=1;spacingTop=10;tabWidth=90;tabHeight=20;tabPosition=left;html=1;whiteSpace=wrap;" vertex="1" parent="2lj4yMtTakOGlPAu2oi3-14">
          <mxGeometry width="230" height="200" as="geometry" />
        </mxCell>
        <mxCell id="2lj4yMtTakOGlPAu2oi3-10" value="&lt;div&gt;Services&lt;/div&gt;" style="text;html=1;strokeColor=none;fillColor=none;align=center;verticalAlign=middle;whiteSpace=wrap;rounded=0;" vertex="1" parent="2lj4yMtTakOGlPAu2oi3-14">
          <mxGeometry width="60" height="30" as="geometry" />
        </mxCell>
        <mxCell id="2lj4yMtTakOGlPAu2oi3-11" style="edgeStyle=orthogonalEdgeStyle;rounded=0;orthogonalLoop=1;jettySize=auto;html=1;exitX=0.5;exitY=1;exitDx=0;exitDy=0;exitPerimeter=0;entryX=0;entryY=0;entryDx=160;entryDy=20;entryPerimeter=0;dashed=1;" edge="1" parent="1" source="2lj4yMtTakOGlPAu2oi3-9" target="2lj4yMtTakOGlPAu2oi3-3">
          <mxGeometry relative="1" as="geometry" />
        </mxCell>
        <mxCell id="2lj4yMtTakOGlPAu2oi3-9" value="UI" style="shape=folder;fontStyle=1;spacingTop=10;tabWidth=90;tabHeight=20;tabPosition=left;html=1;whiteSpace=wrap;" vertex="1" parent="1">
          <mxGeometry x="40" y="190" width="150" height="90" as="geometry" />
        </mxCell>
        <mxCell id="2lj4yMtTakOGlPAu2oi3-12" value="UserService" style="rounded=0;whiteSpace=wrap;html=1;" vertex="1" parent="1">
          <mxGeometry x="55" y="360" width="120" height="60" as="geometry" />
        </mxCell>
        <mxCell id="2lj4yMtTakOGlPAu2oi3-13" value="AccountService" style="rounded=0;whiteSpace=wrap;html=1;" vertex="1" parent="1">
          <mxGeometry x="55" y="430" width="120" height="60" as="geometry" />
        </mxCell>
        <mxCell id="2lj4yMtTakOGlPAu2oi3-15" value="" style="group" vertex="1" connectable="0" parent="1">
          <mxGeometry x="40" y="590" width="230" height="200" as="geometry" />
        </mxCell>
        <mxCell id="2lj4yMtTakOGlPAu2oi3-16" value="" style="shape=folder;fontStyle=1;spacingTop=10;tabWidth=90;tabHeight=20;tabPosition=left;html=1;whiteSpace=wrap;" vertex="1" parent="2lj4yMtTakOGlPAu2oi3-15">
          <mxGeometry width="230" height="200" as="geometry" />
        </mxCell>
        <mxCell id="2lj4yMtTakOGlPAu2oi3-17" value="&lt;div&gt;Repositories&lt;br&gt;&lt;/div&gt;" style="text;html=1;strokeColor=none;fillColor=none;align=center;verticalAlign=middle;whiteSpace=wrap;rounded=0;" vertex="1" parent="2lj4yMtTakOGlPAu2oi3-15">
          <mxGeometry x="10" width="60" height="30" as="geometry" />
        </mxCell>
        <mxCell id="2lj4yMtTakOGlPAu2oi3-18" value="&lt;div&gt;UserRepository&lt;/div&gt;" style="rounded=0;whiteSpace=wrap;html=1;" vertex="1" parent="2lj4yMtTakOGlPAu2oi3-15">
          <mxGeometry x="10" y="40" width="120" height="60" as="geometry" />
        </mxCell>
        <mxCell id="2lj4yMtTakOGlPAu2oi3-19" value="AccountRepository" style="rounded=0;whiteSpace=wrap;html=1;" vertex="1" parent="2lj4yMtTakOGlPAu2oi3-15">
          <mxGeometry x="10" y="110" width="120" height="60" as="geometry" />
        </mxCell>
        <mxCell id="2lj4yMtTakOGlPAu2oi3-20" style="edgeStyle=orthogonalEdgeStyle;rounded=0;orthogonalLoop=1;jettySize=auto;html=1;exitX=0.5;exitY=1;exitDx=0;exitDy=0;exitPerimeter=0;entryX=0;entryY=0;entryDx=160;entryDy=20;entryPerimeter=0;dashed=1;" edge="1" parent="1" source="2lj4yMtTakOGlPAu2oi3-3" target="2lj4yMtTakOGlPAu2oi3-16">
          <mxGeometry relative="1" as="geometry" />
        </mxCell>
        <mxCell id="2lj4yMtTakOGlPAu2oi3-21" value="" style="group" vertex="1" connectable="0" parent="1">
          <mxGeometry x="350" y="320" width="390" height="200" as="geometry" />
        </mxCell>
        <mxCell id="2lj4yMtTakOGlPAu2oi3-22" value="" style="shape=folder;fontStyle=1;spacingTop=10;tabWidth=90;tabHeight=20;tabPosition=left;html=1;whiteSpace=wrap;" vertex="1" parent="2lj4yMtTakOGlPAu2oi3-21">
          <mxGeometry width="390" height="200" as="geometry" />
        </mxCell>
        <mxCell id="2lj4yMtTakOGlPAu2oi3-23" value="&lt;div&gt;Repositories&lt;br&gt;&lt;/div&gt;" style="text;html=1;strokeColor=none;fillColor=none;align=center;verticalAlign=middle;whiteSpace=wrap;rounded=0;" vertex="1" parent="2lj4yMtTakOGlPAu2oi3-21">
          <mxGeometry x="10" width="60" height="30" as="geometry" />
        </mxCell>
        <mxCell id="2lj4yMtTakOGlPAu2oi3-40" style="edgeStyle=none;rounded=0;orthogonalLoop=1;jettySize=auto;html=1;exitX=1;exitY=0.5;exitDx=0;exitDy=0;endArrow=none;endFill=0;" edge="1" parent="2lj4yMtTakOGlPAu2oi3-21" source="2lj4yMtTakOGlPAu2oi3-24" target="2lj4yMtTakOGlPAu2oi3-25">
          <mxGeometry relative="1" as="geometry" />
        </mxCell>
        <mxCell id="2lj4yMtTakOGlPAu2oi3-41" value="1" style="edgeLabel;html=1;align=center;verticalAlign=middle;resizable=0;points=[];" vertex="1" connectable="0" parent="2lj4yMtTakOGlPAu2oi3-40">
          <mxGeometry x="-0.5657" y="-1" relative="1" as="geometry">
            <mxPoint as="offset" />
          </mxGeometry>
        </mxCell>
        <mxCell id="2lj4yMtTakOGlPAu2oi3-42" value="*" style="edgeLabel;html=1;align=center;verticalAlign=middle;resizable=0;points=[];" vertex="1" connectable="0" parent="2lj4yMtTakOGlPAu2oi3-40">
          <mxGeometry x="0.7371" y="1" relative="1" as="geometry">
            <mxPoint x="-8" y="1" as="offset" />
          </mxGeometry>
        </mxCell>
        <mxCell id="2lj4yMtTakOGlPAu2oi3-24" value="&lt;div&gt;User&lt;/div&gt;" style="rounded=0;whiteSpace=wrap;html=1;" vertex="1" parent="2lj4yMtTakOGlPAu2oi3-21">
          <mxGeometry x="10" y="40" width="120" height="60" as="geometry" />
        </mxCell>
        <mxCell id="2lj4yMtTakOGlPAu2oi3-25" value="Account" style="rounded=0;whiteSpace=wrap;html=1;" vertex="1" parent="2lj4yMtTakOGlPAu2oi3-21">
          <mxGeometry x="220" y="40" width="120" height="60" as="geometry" />
        </mxCell>
        <mxCell id="2lj4yMtTakOGlPAu2oi3-26" style="edgeStyle=orthogonalEdgeStyle;rounded=0;orthogonalLoop=1;jettySize=auto;html=1;exitX=0;exitY=0;exitDx=230;exitDy=110;exitPerimeter=0;entryX=0;entryY=0;entryDx=0;entryDy=110;entryPerimeter=0;dashed=1;" edge="1" parent="1" source="2lj4yMtTakOGlPAu2oi3-16" target="2lj4yMtTakOGlPAu2oi3-22">
          <mxGeometry relative="1" as="geometry" />
        </mxCell>
      </root>
    </mxGraphModel>
  </diagram>
</mxfile>
